<?xml version="1.0" standalone="no"?>
<!DOCTYPE svg PUBLIC "-//W3C//DTD SVG 20010904//EN"
 "http://www.w3.org/TR/2001/REC-SVG-20010904/DTD/svg10.dtd">
<svg version="1.0" xmlns="http://www.w3.org/2000/svg"
 width="500.000000pt" height="500.000000pt" viewBox="0 0 500.000000 500.000000"
 preserveAspectRatio="xMidYMid meet">

<g transform="translate(0.000000,500.000000) scale(0.100000,-0.100000)"
fill="#000000" stroke="none">
<path d="M1572 3531 c2 -10 18 -18 44 -21 43 -6 110 -38 162 -76 l32 -25 0
-290 0 -289 35 0 35 0 2 248 3 247 205 -247 205 -247 138 0 c91 -1 136 2 132
9 -4 6 -113 140 -243 298 -130 159 -258 315 -283 348 l-46 60 -212 0 c-188 1
-211 -1 -209 -15z"/>
<path d="M2952 3531 c2 -9 10 -17 18 -18 97 -12 135 -36 173 -107 21 -39 22
-55 25 -308 l3 -268 35 0 34 0 0 203 c0 225 10 319 40 377 24 48 75 88 121 96
70 11 80 15 76 27 -3 9 -70 12 -266 13 -230 0 -261 -2 -259 -15z"/>
<path d="M2030 2592 c-8 -2 -34 -20 -57 -39 -76 -61 -120 -64 -164 -9 -18 21
-14 22 -81 -12 -3 -2 -4 7 -1 20 4 16 2 20 -5 13 -14 -14 -26 -75 -15 -75 5 0
20 11 33 25 13 14 29 25 36 25 7 0 24 -11 38 -25 29 -29 72 -33 116 -10 27 14
29 14 35 -5 8 -26 23 -25 52 2 21 20 24 20 41 5 27 -25 89 -21 140 8 27 15 42
19 42 11 0 -7 6 -21 14 -32 14 -18 15 -18 45 -1 23 14 35 15 50 7 28 -15 60
-12 106 8 39 18 40 18 56 -2 26 -32 127 -29 196 5 48 23 52 24 56 7 12 -46
120 -47 208 -3 l51 25 -6 -25 c-8 -30 4 -32 29 -5 30 33 53 35 81 5 22 -24 31
-27 69 -23 42 5 105 40 105 59 0 5 -17 -2 -37 -15 -63 -41 -85 -42 -128 -5
-37 32 -38 33 -66 16 -28 -15 -29 -15 -29 3 0 17 -7 15 -66 -16 -73 -38 -154
-46 -190 -20 -19 14 -19 15 1 21 50 16 65 26 65 40 0 30 -31 28 -75 -4 -85
-61 -181 -87 -239 -65 -22 8 -20 34 2 34 27 0 62 28 56 45 -10 25 -34 17 -92
-27 -47 -37 -61 -42 -106 -43 -50 0 -51 0 -54 33 -4 41 -32 45 -32 3 0 -30
-22 -57 -38 -47 -5 3 -12 19 -16 36 l-6 30 -41 -30 c-72 -52 -141 -49 -155 5
-8 34 -17 31 -37 -10 -17 -36 -37 -47 -37 -20 0 17 38 59 61 67 19 7 8 17 -11
10z m536 -27 c-26 -19 -42 -19 -26 0 7 8 20 15 29 15 13 -1 13 -3 -3 -15z
m260 0 c-23 -17 -36 -19 -36 -6 0 11 18 19 40 20 11 0 10 -3 -4 -14z"/>
<path d="M1810 2177 c0 -263 -36 -335 -179 -356 -31 -4 -47 -11 -49 -23 -3
-15 20 -16 263 -16 242 0 266 1 263 16 -2 12 -18 19 -51 24 -73 10 -108 35
-142 102 -28 58 -29 64 -33 238 l-4 178 -34 0 -34 0 0 -163z"/>
<path d="M2762 2276 c29 -35 141 -170 248 -299 115 -139 202 -236 213 -236 16
-1 17 20 17 299 l0 300 -35 0 -35 0 0 -116 0 -115 -96 115 -95 116 -135 0
-136 0 54 -64z"/>
</g>
</svg>
